<svg viewBox="0 0 48 48" fill="none" xmlns="http://www.w3.org/2000/svg">
<path fill-rule="evenodd" clip-rule="evenodd" d="M40.3037 8.7975C40.0629 8.7975 39.822 8.70503 39.6393 8.52009L39.5596 8.44041C39.1944 8.07491 39.1944 7.48281 39.5596 7.11731C39.9251 6.75181 40.5172 6.75218 40.8827 7.11731L40.9686 7.20357C41.3322 7.57089 41.3289 8.163 40.962 8.52667C40.7796 8.70722 40.5417 8.7975 40.3037 8.7975Z" fill="#94EB54"/>
<path fill-rule="evenodd" clip-rule="evenodd" d="M23.9485 48C17.5515 48 11.5376 45.5088 7.01425 40.9857C2.49086 36.4623 0 30.4485 0 24.0515C0 17.6546 2.49123 11.6407 7.01425 7.11731C15.1919 -1.06032 28.0252 -2.23612 37.5292 4.32126C37.9547 4.61475 38.0614 5.19735 37.7683 5.62243C37.4748 6.04787 36.8922 6.15459 36.4667 5.8611C27.7065 -0.183128 15.8765 0.901668 8.33735 8.44041C-0.270468 17.0482 -0.270468 31.0548 8.33735 39.6626C16.9455 48.2708 30.9518 48.2708 39.5596 39.6626C46.9265 32.296 48.1283 20.6396 42.417 11.9463C42.1334 11.5146 42.2533 10.9346 42.6853 10.6509C43.117 10.3669 43.697 10.4872 43.9806 10.9192C46.9598 15.4536 48.3107 20.9419 47.7851 26.3728C47.2518 31.8783 44.8008 37.0676 40.8827 40.9857C36.3593 45.5088 30.3454 48 23.9485 48Z" fill="#00A76A"/>
<path d="M23.6 11.8438C21.7355 11.8438 20.225 13.3539 20.225 15.2188C20.225 17.0796 21.7391 18.5938 23.6 18.5938C25.4645 18.5938 26.975 17.0836 26.975 15.2188C26.975 13.3543 25.4648 11.8438 23.6 11.8438ZM23.6 16.9062C22.6696 16.9062 21.9125 16.1492 21.9125 15.2188C21.9125 14.2867 22.6679 13.5312 23.6 13.5312C24.5321 13.5312 25.2875 14.2867 25.2875 15.2188C25.2875 16.1508 24.5321 16.9062 23.6 16.9062Z" fill="#94EB54"/>
<path d="M24.4438 20.2812H22.7563C21.3604 20.2812 20.225 21.4167 20.225 22.8125V34.625C20.225 36.0208 21.3604 37.1562 22.7563 37.1562H24.4438C25.8396 37.1562 26.975 36.0208 26.975 34.625V22.8125C26.975 21.4167 25.8396 20.2812 24.4438 20.2812ZM25.2875 34.625C25.2875 35.0904 24.9091 35.4688 24.4438 35.4688H22.7563C22.2909 35.4688 21.9125 35.0904 21.9125 34.625V22.8125C21.9125 22.3471 22.2909 21.9688 22.7563 21.9688H24.4438C24.9091 21.9688 25.2875 22.3471 25.2875 22.8125V34.625Z" fill="#94EB54"/>
</svg>
