<svg width="1012" height="452" viewBox="0 0 1012 452" fill="none" xmlns="http://www.w3.org/2000/svg">
<g clip-path="url(#clip0_1_14)">
<path d="M798.661 318C789.698 321.8 780.736 323.7 771.674 323.7C757.335 323.7 744.389 321.2 732.938 316.2C721.486 311.2 711.827 304.3 703.96 295.5C696.093 286.7 690.019 276.4 685.836 264.5C681.654 252.6 679.563 239.8 679.563 226.1C679.563 212 681.654 199 685.836 186.9C690.019 174.8 695.994 164.3 703.86 155.4C711.727 146.4 721.386 139.4 732.838 134.3C744.29 129.2 757.136 126.6 771.575 126.6C781.234 126.6 790.495 128.1 799.457 131C808.419 133.9 816.585 138.2 823.854 143.8C831.124 149.4 837.098 156.4 841.779 164.7C846.459 173 849.347 182.5 850.442 193.2H811.208C808.718 182.7 804.038 174.8 797.067 169.5C790.097 164.2 781.632 161.6 771.575 161.6C762.314 161.6 754.447 163.4 747.974 167C741.502 170.6 736.224 175.4 732.241 181.5C728.257 187.6 725.27 194.5 723.478 202.2C721.685 209.9 720.689 217.9 720.689 226.2C720.689 234.1 721.586 241.8 723.478 249.3C725.27 256.8 728.257 263.5 732.241 269.5C736.224 275.5 741.502 280.3 747.974 283.9C754.447 287.5 762.314 289.3 771.575 289.3C785.217 289.3 795.773 285.8 803.241 278.9C810.71 272 814.992 262 816.286 248.8H774.861V217.7H853.43V319.4H827.24L823.058 298.1C815.788 307.6 807.623 314.2 798.661 318Z" fill="#990000"/>
<path d="M920.248 131.3V284.4H1011.56V319.3H879.121V131.3H920.248Z" fill="#990000"/>
<path d="M725.868 342.7C663.033 381.1 568.83 402.9 463.773 402.9C274.471 402.9 121.118 323.8 121.118 226.1C121.118 128.5 274.571 49.3 463.773 49.3C569.228 49.3 663.73 71.6 726.565 110.2C658.054 45.5 534.973 0.1 394.366 0C178.875 0 4.21127 101.2 4.21127 226.1C4.21127 351 178.875 452.3 394.266 452.3C534.375 452.3 657.058 407 725.868 342.7Z" fill="#990000"/>
<path d="M220.9 273.6L184.6 116.6H150.3L204.1 321.3H236.3L281.6 160.5L326.3 321.3H358.6L414.3 116.6H378L341.7 273.6L297.9 116.6H264.7L220.9 273.6Z" fill="#990000"/>
<path d="M504.9 202.8C499.9 195.7 493.6 190.3 486.2 186.6C478.6 182.8 469.8 180.9 460 180.9C449 180.9 439.1 182.9 430.5 186.8C422.4 190.5 415.5 196 409.9 203.1C399.6 216.2 394.2 234.7 394.2 256.6C394.2 266.3 395.6 275.5 398.3 283.7C401 292 405.1 299.3 410.3 305.4C421.3 318.2 437 325 455.7 325C465.5 325 473.5 324 480.2 321.9C486 320.1 489.9 317.7 493.1 315.6C497.2 312.9 500.9 309.6 504.3 305.8C507.1 302.5 509.6 298.9 511.8 295C515.6 288 517.5 281.4 517.9 278L518.2 275.7H491.5L491.4 277.6C490.7 286.3 479.3 301.8 459 301.8C430 301.8 423.1 280.8 422.6 262.3H519.8V260.2C519.8 248.3 518.6 237.4 516.2 227.9C513.5 218 509.8 209.6 504.9 202.8ZM456.9 204.9C478.4 204.9 489.9 216.5 492 240.3H422.4C423.5 221 438.8 204.9 456.9 204.9Z" fill="#990000"/>
<path d="M654.1 222.4C651.5 214.1 647.7 206.8 642.8 200.7C637.7 194.4 631.5 189.5 624.4 186.1C617 182.6 608.7 180.8 599.7 180.8C591.4 180.9 583.9 182.7 577.3 186.2C571.8 189 566.9 193 562.7 198V135.2H536.1V321.2H561.4V308.5C563.6 311.4 566.5 314.5 570.3 317.2C577.5 322.4 586.4 325 596.7 325C607.8 325 617.8 322.5 626.2 317.6C633.7 313.2 640.1 306.9 645.1 298.9C649.5 291.9 652.8 283.6 655 274.3C656.9 266.3 657.9 257.5 657.9 248.9C658 239.6 656.7 230.6 654.1 222.4ZM630.2 252.6C630.2 267.2 627.3 279.4 621.7 288C615.8 297.1 607.2 301.7 596.2 301.7C580.3 301.7 561.7 290.6 561.7 259.2C561.7 244.2 563.6 232.6 567.4 223.8C572.9 211.1 582.2 205 595.7 205C610.1 205 619.8 210.6 625.2 222.3C629.6 231.9 630.2 243.6 630.2 252.6Z" fill="#990000"/>
</g>
<defs>
<clipPath id="clip0_1_14">
<rect width="1012" height="452" fill="white"/>
</clipPath>
</defs>
</svg>
